<?xml version="1.0" standalone="no"?>
<!DOCTYPE svg PUBLIC "-//W3C//DTD SVG 20010904//EN"
 "http://www.w3.org/TR/2001/REC-SVG-20010904/DTD/svg10.dtd">
<svg version="1.0" xmlns="http://www.w3.org/2000/svg"
 width="1024.000000pt" height="1024.000000pt" viewBox="0 0 1024.000000 1024.000000"
 preserveAspectRatio="xMidYMid meet">
<metadata>
Created by potrace 1.16, written by Peter Selinger 2001-2019
</metadata>
<g transform="translate(0.000000,1024.000000) scale(0.100000,-0.100000)"
fill="#000000" stroke="none">
<path d="M0 5120 l0 -5120 5120 0 5120 0 0 5120 0 5120 -5120 0 -5120 0 0
-5120z m5169 3692 c6 -12 16 -22 20 -22 5 0 33 21 62 47 87 76 100 83 27 15
-94 -88 -93 -91 32 -112 131 -22 132 -22 55 -35 -100 -18 -155 -34 -155 -46 0
-6 28 -41 63 -77 l62 -66 -75 67 c-41 37 -78 63 -83 58 -4 -4 -18 -61 -30
-125 l-21 -117 -22 112 c-12 61 -27 116 -32 121 -7 7 -37 -14 -88 -58 l-79
-67 74 76 c41 42 73 79 70 81 -10 10 -124 36 -188 43 l-66 7 124 22 c68 13
125 25 128 28 3 2 -17 28 -43 58 l-49 52 51 -42 c29 -23 56 -42 62 -42 12 0
27 66 45 185 l11 80 17 -110 c9 -61 21 -121 28 -133z m41 -628 c199 -107 460
-326 595 -499 145 -186 252 -385 328 -610 69 -202 70 -185 -10 -224 -225 -111
-423 -308 -505 -503 -96 -229 -93 -474 9 -671 49 -95 161 -208 268 -270 90
-53 112 -56 227 -32 190 40 343 158 429 330 65 131 81 263 54 435 -29 179 -93
332 -197 472 -57 78 -58 72 28 179 117 147 310 298 514 403 117 60 305 134
315 124 5 -4 -65 -425 -85 -515 -6 -25 -9 -46 -8 -47 2 0 30 -15 63 -32 240
-123 207 -484 -53 -564 -35 -11 -76 -20 -91 -20 l-26 0 -63 -381 -64 -380 42
-45 c23 -25 50 -64 61 -87 23 -53 25 -156 3 -220 -22 -64 -91 -139 -154 -166
-42 -18 -50 -26 -50 -49 -1 -15 -6 -59 -13 -98 l-13 -71 136 -33 c74 -18 166
-43 203 -55 58 -18 75 -20 114 -12 89 21 209 -27 265 -105 12 -18 30 -55 39
-82 l17 -48 7 63 c4 35 15 144 24 243 l16 179 71 18 c248 64 434 235 503 464
28 90 40 211 30 303 -14 126 -48 211 -164 408 l-19 31 74 92 c145 182 334 312
567 390 103 35 313 74 371 69 l39 -3 -29 -95 c-16 -52 -64 -205 -108 -340
-154 -480 -250 -787 -250 -801 0 -8 -18 -68 -39 -134 -22 -66 -65 -203 -96
-305 -32 -102 -64 -195 -71 -207 -8 -13 -12 -23 -10 -23 3 0 -8 -37 -23 -83
l-28 -82 -114 -6 c-182 -10 -306 -66 -428 -194 -77 -81 -134 -188 -156 -291
-18 -83 -19 -131 -4 -208 6 -32 8 -60 6 -63 -3 -2 -54 12 -114 33 l-109 38 7
66 c4 36 12 117 19 180 6 63 13 126 16 140 3 20 2 20 -7 -5 -32 -84 -126 -156
-221 -170 -90 -14 -207 35 -253 105 -11 16 -27 30 -35 30 -8 0 -78 18 -155 40
-77 22 -145 40 -151 40 -5 0 -17 -45 -26 -101 -9 -55 -18 -102 -20 -104 -2 -2
-90 12 -195 30 -342 61 -722 103 -1137 125 -105 6 -191 11 -192 13 -1 1 -3 43
-5 92 -1 50 -6 102 -10 116 -4 14 -12 122 -19 240 -17 285 -33 307 -45 59 -8
-173 -34 -502 -39 -508 -3 -2 -123 -10 -268 -18 -685 -35 -1198 -116 -1780
-279 -257 -72 -719 -231 -877 -302 -29 -13 -55 -22 -57 -20 -4 4 -111 339
-216 677 -39 124 -85 272 -103 330 -37 116 -279 894 -410 1315 -46 149 -113
360 -148 470 l-65 200 36 3 c49 5 211 -22 317 -53 113 -33 268 -106 371 -175
87 -60 232 -194 294 -275 l40 -52 -53 -91 c-193 -326 -163 -685 78 -928 96
-97 203 -155 330 -181 l81 -15 50 25 c136 69 231 174 287 317 109 278 19 638
-213 853 -85 78 -185 130 -308 160 l-93 22 6 45 c35 243 192 628 332 814 76
101 188 217 251 260 l42 29 108 -38 c285 -100 530 -268 699 -481 107 -134 104
-118 41 -206 -121 -168 -188 -340 -208 -530 -15 -150 4 -261 68 -383 50 -95
164 -209 254 -253 80 -39 203 -72 270 -72 44 0 57 6 121 54 217 162 322 371
319 636 -3 327 -202 640 -501 786 -53 26 -98 49 -100 51 -18 13 89 304 174
473 148 295 297 473 562 673 93 69 299 197 318 197 5 0 48 -21 95 -46z m1008
-130 c59 -41 63 -114 10 -159 -50 -42 -116 -28 -147 32 -43 85 60 181 137 127z
m-2075 -14 c34 -27 43 -70 22 -113 -21 -44 -53 -61 -102 -54 -78 13 -108 95
-57 156 21 26 33 31 69 31 27 0 51 -7 68 -20z m-492 -289 c18 -14 24 -29 24
-61 0 -32 -6 -47 -24 -61 -33 -27 -82 -25 -111 6 -69 73 33 180 111 116z
m3056 -3 c33 -31 32 -90 -3 -117 -54 -42 -120 -16 -130 51 -5 30 -2 41 19 62
33 33 82 35 114 4z m-4483 -679 c54 -43 21 -139 -49 -139 -41 0 -72 23 -80 61
-17 76 67 127 129 78z m5906 -16 c26 -33 21 -79 -11 -105 -28 -24 -60 -23 -93
3 -35 27 -37 90 -4 113 36 25 83 20 108 -11z m-6406 -114 c32 -25 35 -70 5
-100 -46 -46 -133 5 -112 67 9 27 43 54 69 54 6 0 23 -9 38 -21z m6081 -779
c-3 -5 -15 -10 -25 -10 -10 0 -64 -23 -120 -51 -248 -124 -389 -345 -407 -634
-11 -188 46 -361 166 -502 l61 -73 -58 26 c-192 84 -331 260 -368 464 -39 215
32 428 196 584 126 120 269 183 445 196 55 4 104 8 108 8 5 1 5 -2 2 -8z
m-6381 -1691 c53 -41 18 -129 -51 -129 -32 0 -73 42 -73 75 0 33 41 75 73 75
13 0 36 -9 51 -21z m7490 0 c35 -27 37 -90 4 -113 -69 -48 -151 20 -113 93 23
46 66 54 109 20z m-3783 -664 l4 -190 -65 -17 c-36 -9 -77 -17 -92 -17 -26 -1
-26 0 -16 37 13 48 23 59 72 84 23 11 43 22 45 24 2 2 7 74 12 161 5 87 12
221 16 298 l8 140 6 -165 c3 -91 8 -250 10 -355z m3224 373 c-4 -18 -13 -36
-19 -40 -6 -4 -8 -8 -4 -8 8 0 -21 -102 -31 -110 -3 -3 -6 -10 -6 -15 0 -6
-29 -106 -64 -222 l-65 -211 -45 17 c-42 15 -48 22 -76 86 -27 63 -30 80 -30
175 0 95 3 110 27 157 37 69 81 118 136 150 47 28 119 51 160 52 21 1 23 -2
17 -31z m-3335 -174 l32 -7 -6 -76 c-4 -42 -9 -92 -12 -112 l-5 -36 -185 -7
c-835 -31 -1715 -219 -2512 -537 -68 -28 -126 -49 -127 -47 -6 7 -55 175 -55
190 0 17 44 37 293 134 542 211 1141 361 1762 443 138 18 505 47 685 54 41 2
80 4 86 5 6 1 26 -1 44 -4z m525 -14 c202 -11 456 -38 670 -70 178 -27 455
-81 455 -89 0 -11 -40 -214 -42 -217 -2 -1 -73 11 -158 27 -352 67 -732 111
-1077 125 l-162 7 -5 26 c-3 14 -8 68 -12 119 l-6 93 73 -6 c41 -3 160 -10
264 -15z m-735 -515 c0 -104 -2 -115 -18 -115 -38 0 -354 -31 -512 -51 -654
-80 -1293 -244 -1906 -487 l-52 -21 -33 99 c-22 65 -30 103 -24 109 6 5 93 41
195 79 799 300 1531 458 2328 501 22 1 22 -1 22 -114z m935 89 c672 -59 1386
-230 2089 -500 76 -29 141 -56 144 -59 4 -3 -9 -51 -28 -106 -27 -77 -38 -98
-50 -93 -219 90 -631 228 -857 288 -443 116 -999 216 -1373 245 -74 6 -163 14
-197 17 l-63 6 0 107 c0 59 3 111 6 114 7 7 72 3 329 -19z m-558 -34 c2 0 3
-253 3 -561 l0 -561 -35 6 -35 7 0 -501 0 -500 -27 0 c-33 0 -397 28 -470 36
l-53 5 0 224 c0 255 -3 245 84 245 l46 0 0 194 0 193 63 12 c34 7 70 14 80 17
15 5 17 23 17 187 0 100 3 253 7 339 l6 157 29 6 28 7 0 223 c0 168 3 226 13
232 29 19 183 49 212 41 16 -4 31 -8 32 -8z m-399 -517 l-3 -168 -52 -3 -53
-3 0 170 0 171 55 0 55 0 -2 -167z m742 153 c0 -23 -70 -250 -81 -261 -5 -5
-9 43 -9 126 0 75 3 139 7 142 3 4 24 7 45 7 26 0 38 -4 38 -14z m315 -21 c93
-8 366 -50 536 -81 l137 -26 -8 -31 c-5 -18 -16 -82 -26 -144 -17 -104 -20
-112 -39 -108 -26 6 -378 65 -387 65 -5 0 -8 38 -8 85 l0 85 -107 54 c-153 77
-223 117 -193 112 14 -3 57 -8 95 -11z m-1596 -50 c-57 -31 -132 -70 -166 -87
l-63 -32 0 -81 0 -81 -102 -17 c-242 -41 -699 -156 -928 -234 -108 -36 -439
-158 -511 -187 -13 -6 -23 16 -54 116 -21 68 -40 128 -42 134 -5 13 39 33 252
112 444 165 972 300 1510 386 222 36 224 35 104 -29z m241 -595 l0 -560 -22
-4 c-13 -3 -40 -8 -60 -11 l-38 -6 0 -221 0 -220 -122 6 c-68 4 -144 9 -171
12 l-47 6 2 156 c3 130 6 157 18 159 8 1 36 5 63 8 l47 6 0 519 0 518 43 25
c23 14 62 36 87 50 25 14 79 45 120 70 41 25 76 46 78 46 1 1 2 -251 2 -559z
m-2726 509 c56 -44 20 -139 -54 -139 -44 0 -80 35 -80 78 0 72 75 107 134 61z
m3994 -39 l102 -49 -2 -527 -2 -526 -35 6 c-20 3 -46 6 -58 6 -23 0 -23 2 -23
129 0 145 6 134 -81 146 l-46 7 -6 216 c-9 271 -9 600 -1 630 8 28 15 26 152
-38z m2826 39 c52 -41 20 -139 -45 -139 -43 0 -65 15 -78 50 -28 81 56 142
123 89z m-3294 -294 c0 -220 -2 -255 -15 -255 -13 0 -15 35 -15 255 0 220 2
255 15 255 13 0 15 -35 15 -255z m985 -207 l7 -86 48 -12 48 -12 -5 -54 c-6
-59 -9 -55 65 -74 l42 -11 0 -105 c0 -96 -2 -105 -17 -100 -56 17 -115 28
-119 23 -4 -3 -6 -137 -6 -296 l1 -291 -97 -1 c-53 0 -134 -4 -179 -7 l-83 -7
0 191 0 190 48 15 47 15 3 178 2 177 45 20 45 20 0 58 0 58 45 17 45 18 1 101
c2 112 5 107 14 -25z m-2413 -450 c-2 -299 -5 -544 -6 -545 -1 -1 -71 4 -156
10 l-155 12 0 499 0 499 145 33 c80 18 152 33 161 33 14 1 16 -49 11 -541z
m3388 -82 l0 -414 -22 -5 c-13 -3 -85 -9 -160 -13 l-138 -7 0 78 0 78 -60 -6
-60 -7 0 279 0 279 25 6 c14 4 49 17 78 30 50 23 314 116 330 116 4 0 7 -186
7 -414z m-3990 199 c52 -9 103 -18 113 -21 16 -5 17 -28 17 -306 l0 -301 -136
7 c-76 4 -141 9 -145 12 -10 6 -12 593 -3 618 4 10 15 14 32 11 15 -3 70 -12
122 -20z m-435 -115 c41 -17 46 -23 41 -43 -3 -12 -6 -47 -6 -77 l0 -56 -41 4
-42 4 5 -93 c3 -51 3 -119 1 -150 l-6 -56 -91 4 c-50 2 -128 6 -174 9 l-82 6
2 206 3 206 150 27 c187 33 184 33 240 9z m4816 -16 c46 -8 101 -20 122 -25
l37 -10 0 -114 c0 -63 -2 -115 -5 -115 -3 0 -29 12 -57 26 -50 25 -51 26 -134
12 l-84 -14 0 128 c0 148 -12 137 121 112z m-5341 -328 l0 -105 -52 5 c-29 2
-97 6 -150 10 l-98 6 0 68 0 69 33 6 c17 3 77 14 132 24 150 28 135 37 135
-83z m5913 60 l37 -7 0 -74 0 -75 -47 0 c-27 0 -85 -3 -130 -7 l-83 -6 0 105
0 105 93 -17 c50 -10 109 -20 130 -24z m-6325 -83 c-3 -55 -4 -58 -28 -56 -14
0 -128 4 -255 8 -126 4 -237 11 -245 16 -11 6 -7 9 15 9 17 1 129 19 250 39
294 51 267 53 263 -16z m6772 8 c253 -43 253 -44 -30 -56 -69 -3 -158 -8 -197
-11 l-73 -6 0 62 0 63 38 -7 c20 -3 138 -24 262 -45z"/>
<path d="M5118 7241 c-3 -105 -2 -111 17 -111 34 -1 100 -36 128 -69 91 -108
33 -258 -111 -287 -36 -7 -42 -24 -42 -114 0 -108 0 -108 77 -98 267 32 427
313 314 554 -57 123 -191 220 -319 231 l-61 6 -3 -112z"/>
</g>
</svg>
